<svg width="190" height="38" viewBox="0 0 190 38" fill="none" xmlns="http://www.w3.org/2000/svg">
<g filter="url(#filter0_d_0_8)">
<g clip-path="url(#clip0_0_8)">
<path d="M18.2625 15.2188C16.693 13.9664 14.8719 13.3047 12.9906 13.3047C8.7589 13.3047 5.17577 16.7363 4.07655 21.8359C3.88515 22.7449 4.05604 23.6888 4.54823 24.427C5.02675 25.1445 5.74479 25.5547 6.51042 25.5547H36.375C30.7312 25.5547 27.8984 23.5242 23.6219 19.8399L18.2625 15.2188ZM31.0976 14.2234L29.614 5.66486C29.4567 4.7215 28.9167 3.88751 28.1308 3.35431C27.345 2.82111 26.3677 2.62696 25.438 2.82521L14.9867 5.04798C13.4992 5.36243 12.3945 6.59454 12.2305 8.09845L11.8531 11.6641C12.2291 11.6162 12.598 11.5547 12.9879 11.5547C15.2776 11.5547 17.4723 12.3477 19.4082 13.8997L24.7676 18.5137C28.6504 21.8633 31.0621 23.8047 36.3723 23.8047C37.8215 23.8047 38.9973 22.6289 38.9973 21.1797C39 19.7906 37.3812 14.65 31.0976 14.2234Z" fill="black"/>
</g>
<path d="M55.075 10.275C55.075 8.95 55.7 8.325 56.85 8.325C57.45 8.325 58 8.5 58.425 8.8L59.45 5.975C58.725 5.475 57.575 5.25 56.475 5.25C53.125 5.25 51.275 7.225 51.275 10.25V10.85H49.2V13.85H51.275V24H55.175V13.85H58.525V10.85H55.075V10.275ZM65.6488 10.35C63.4988 10.35 61.3238 10.925 59.8488 11.975L61.2488 14.7C62.2238 13.925 63.6988 13.45 65.1238 13.45C67.2238 13.45 68.2238 14.425 68.2238 16.1H65.1238C61.0238 16.1 59.3488 17.75 59.3488 20.125C59.3488 22.45 61.2238 24.2 64.3738 24.2C66.3488 24.2 67.7488 23.55 68.4738 22.325V24H72.1238V16.325C72.1238 12.25 69.7488 10.35 65.6488 10.35ZM65.3488 21.575C63.9738 21.575 63.1488 20.925 63.1488 19.95C63.1488 19.05 63.7238 18.375 65.5488 18.375H68.2238V19.75C67.7738 20.975 66.6488 21.575 65.3488 21.575ZM79.3785 12.325V10.55H75.6535V24H79.5535V17.65C79.5535 15.075 80.9785 13.9 83.1285 13.9C83.4285 13.9 83.6785 13.925 84.0035 13.95V10.35C81.9285 10.35 80.3285 11.025 79.3785 12.325ZM103.547 10.35C101.522 10.35 99.7725 11.175 98.6975 12.55C97.7475 11.075 96.1475 10.35 94.2725 10.35C92.5475 10.35 91.0475 10.95 90.0475 12.1V10.55H86.3225V24H90.2225V17.25C90.2225 14.85 91.4475 13.725 93.1725 13.725C94.7975 13.725 95.7225 14.725 95.7225 16.9V24H99.6225V17.25C99.6225 14.85 100.847 13.725 102.597 13.725C104.172 13.725 105.147 14.725 105.147 16.9V24H109.047V16.3C109.047 12.2 106.747 10.35 103.547 10.35ZM122.865 10.55V12.275C121.84 10.975 120.29 10.35 118.415 10.35C114.69 10.35 111.69 12.925 111.69 16.85C111.69 20.775 114.69 23.35 118.415 23.35C120.165 23.35 121.64 22.8 122.665 21.675V22.25C122.665 24.675 121.465 25.925 118.715 25.925C116.99 25.925 115.115 25.325 113.965 24.4L112.415 27.2C113.99 28.425 116.465 29.05 119.015 29.05C123.865 29.05 126.565 26.75 126.565 21.75V10.55H122.865ZM119.19 20.15C117.14 20.15 115.64 18.825 115.64 16.85C115.64 14.875 117.14 13.55 119.19 13.55C121.24 13.55 122.715 14.875 122.715 16.85C122.715 18.825 121.24 20.15 119.19 20.15ZM135.62 10.35C133.47 10.35 131.295 10.925 129.82 11.975L131.22 14.7C132.195 13.925 133.67 13.45 135.095 13.45C137.195 13.45 138.195 14.425 138.195 16.1H135.095C130.995 16.1 129.32 17.75 129.32 20.125C129.32 22.45 131.195 24.2 134.345 24.2C136.32 24.2 137.72 23.55 138.445 22.325V24H142.095V16.325C142.095 12.25 139.72 10.35 135.62 10.35ZM135.32 21.575C133.945 21.575 133.12 20.925 133.12 19.95C133.12 19.05 133.695 18.375 135.52 18.375H138.195V19.75C137.745 20.975 136.62 21.575 135.32 21.575ZM162.849 10.35C160.824 10.35 159.074 11.175 157.999 12.55C157.049 11.075 155.449 10.35 153.574 10.35C151.849 10.35 150.349 10.95 149.349 12.1V10.55H145.624V24H149.524V17.25C149.524 14.85 150.749 13.725 152.474 13.725C154.099 13.725 155.024 14.725 155.024 16.9V24H158.924V17.25C158.924 14.85 160.149 13.725 161.899 13.725C163.474 13.725 164.449 14.725 164.449 16.9V24H168.349V16.3C168.349 12.2 166.049 10.35 162.849 10.35ZM185.166 17.325C185.166 13 182.116 10.35 178.166 10.35C174.066 10.35 170.991 13.25 170.991 17.275C170.991 21.275 174.016 24.2 178.666 24.2C181.091 24.2 182.966 23.45 184.216 22.025L182.141 19.775C181.216 20.65 180.191 21.075 178.766 21.075C176.716 21.075 175.291 20.05 174.916 18.375H185.091C185.116 18.05 185.166 17.625 185.166 17.325ZM178.191 13.3C179.941 13.3 181.216 14.4 181.491 16.1H174.866C175.141 14.375 176.416 13.3 178.191 13.3Z" fill="black"/>
</g>
<defs>
<filter id="filter0_d_0_8" x="0" y="0" width="190" height="38" filterUnits="userSpaceOnUse" color-interpolation-filters="sRGB">
<feFlood flood-opacity="0" result="BackgroundImageFix"/>
<feColorMatrix in="SourceAlpha" type="matrix" values="0 0 0 0 0 0 0 0 0 0 0 0 0 0 0 0 0 0 127 0" result="hardAlpha"/>
<feOffset dy="4"/>
<feGaussianBlur stdDeviation="2"/>
<feComposite in2="hardAlpha" operator="out"/>
<feColorMatrix type="matrix" values="0 0 0 0 0 0 0 0 0 0 0 0 0 0 0 0 0 0 0.25 0"/>
<feBlend mode="normal" in2="BackgroundImageFix" result="effect1_dropShadow_0_8"/>
<feBlend mode="normal" in="SourceGraphic" in2="effect1_dropShadow_0_8" result="shape"/>
</filter>
<clipPath id="clip0_0_8">
<rect width="35" height="28" fill="white" transform="translate(4 1)"/>
</clipPath>
</defs>
</svg>
